<svg version="1.1" xmlns="http://www.w3.org/2000/svg" xmlns:xlink="http://www.w3.org/1999/xlink" width="360" height="360" viewBox="0 0 360 360"><defs><path id="f" fill="black" fill-opacity="0.9" fill-rule="evenodd" d="M 0 10 a10,10 0 0 1 10,-10 h36 a10,10 0 0 1 10,10 v36 a10,10 0 0 1 -10,10 h-36 a10,10 0 0 1 -10,-10 Z M 8 10 a2,2 0 0 1 2,-2 h36 a2,2 0 0 1 2,2 v36 a2,2 0 0 1 -2,2 h-36 a2,2 0 0 1 -2,-2 Z M 16 18 a2,2 0 0 1 2,-2 h20 a2,2 0 0 1 2,2 v20 a2,2 0 0 1 -2,2 h-20 a2,2 0 0 1 -2,-2 Z" /><path id="s" fill="#006AFF" fill-rule="evenodd" d="M 0 9.8 C 0 3.92 3.92 0 9.8 0 L 46.2 0 C 52.08 0 56 3.92 56 9.8 L 56 46.2 C 56 52.08 52.08 56 46.2 56 L 9.8 56 C 3.92 56 0 52.08 0 46.2 Z M 11.2 14 C 11.2 12.32 12.32 11.2 14 11.2 L 42 11.2 C 43.68 11.2 44.8 12.32 44.8 14 L 44.8 42 C 44.8 43.68 43.68 44.8 42 44.8 L 14 44.8 C 12.32 44.8 11.2 43.68 11.2 42 Z M 21 22.4 C 21 21.7 21.7 21 22.4 21 L 33.6 21 C 34.3 21 35 21.7 35 22.4 L 35 33.6 C 35 34.3 34.3 35 33.6 35 L 22.4 35 C 21.7 35 21 34.3 21 33.6 Z" /></defs><rect fill="white" x="0" y="0" width="360" height="360" rx="16" ry="16" /><use xlink:href="#f" x="48" y="48" /><use xlink:href="#f" x="48" y="256" /><use xlink:href="#f" x="256" y="48" /><rect fill="black" fill-opacity="0.9" x="112" y="48" width="8" height="8" rx="2" ry="2" /><path fill="black" fill-opacity="0.9" d="M129 52a3,3 0 0 1 3,-3a3,3 0 0 1 3,3v13h5a3,3 0 0 1 3,3v13h13a3,3 0 0 1 3,3a3,3 0 0 1 -3,3h-5v21a3,3 0 0 1 -3,3a3,3 0 0 1 -3,-3v-21h-5a3,3 0 0 1 -3,-3v-13h-13a3,3 0 0 1 -3,-3a3,3 0 0 1 3,-3h5v-13z" /><path fill="black" fill-opacity="0.9" d="M153 52a3,3 0 0 1 3,-3h24a3,3 0 0 1 3,3v8a3,3 0 0 1 -3,3a3,3 0 0 1 -3,-3v-5h-10v10h5a3,3 0 0 1 3,3v5h10v-5a3,3 0 0 1 3,-3h5v-5a3,3 0 0 1 3,-3h8a3,3 0 0 1 3,3a3,3 0 0 1 -3,3h-5v5a3,3 0 0 1 -3,3h-5v5a3,3 0 0 1 -3,3h-5v5a3,3 0 0 1 -3,3a3,3 0 0 1 -3,-3v-5h-5a3,3 0 0 1 -3,-3v-5h-5a3,3 0 0 1 -3,-3v-5h-13a3,3 0 0 1 -3,-3a3,3 0 0 1 3,-3h5v-5z" /><rect fill="black" fill-opacity="0.9" x="232" y="48" width="8" height="8" rx="2" ry="2" /><path fill="black" fill-opacity="0.9" d="M241 60a3,3 0 0 1 3,-3a3,3 0 0 1 3,3v16a3,3 0 0 1 -3,3h-5v5a3,3 0 0 1 -3,3h-16a3,3 0 0 1 -3,-3a3,3 0 0 1 3,-3h13v-5a3,3 0 0 1 3,-3h5v-13z" /><rect fill="black" fill-opacity="0.9" x="216" y="64" width="8" height="8" rx="2" ry="2" /><path fill="black" fill-opacity="0.9" d="M113 76a3,3 0 0 1 3,-3a3,3 0 0 1 3,3v37h10v-21a3,3 0 0 1 3,-3a3,3 0 0 1 3,3v24a3,3 0 0 1 -3,3h-21v10h21a3,3 0 0 1 3,3v5h5a3,3 0 0 1 3,3a3,3 0 0 1 -3,3h-5v13a3,3 0 0 1 -3,3a3,3 0 0 1 -3,-3v-5h-5a3,3 0 0 1 -3,-3a3,3 0 0 1 3,-3h5v-10h-18v5a3,3 0 0 1 -3,3a3,3 0 0 1 -3,-3v-5h-18v13a3,3 0 0 1 -3,3a3,3 0 0 1 -3,-3v-5h-10v26h10v-5a3,3 0 0 1 3,-3h16a3,3 0 0 1 3,3a3,3 0 0 1 -3,3h-13v5a3,3 0 0 1 -3,3h-13v5a3,3 0 0 1 -3,3a3,3 0 0 1 -3,-3v-21h-10v13a3,3 0 0 1 -3,3a3,3 0 0 1 -3,-3v-40a3,3 0 0 1 3,-3h21v-5a3,3 0 0 1 3,-3h5v-5a3,3 0 0 1 3,-3a3,3 0 0 1 3,3v5h5a3,3 0 0 1 3,3v5h10v-10h-5a3,3 0 0 1 -3,-3a3,3 0 0 1 3,-3h13v-37zM65 135h-10v18h10v-18z" /><path fill="black" fill-opacity="0.9" d="M201 76a3,3 0 0 1 3,-3a3,3 0 0 1 3,3v8a3,3 0 0 1 -3,3a3,3 0 0 1 -3,-3v-8z" /><path fill="black" fill-opacity="0.9" d="M161 92a3,3 0 0 1 3,-3h8a3,3 0 0 1 3,3a3,3 0 0 1 -3,3h-5v5a3,3 0 0 1 -3,3a3,3 0 0 1 -3,-3v-8z" /><path fill="black" fill-opacity="0.9" d="M209 92a3,3 0 0 1 3,-3a3,3 0 0 1 3,3v13h5a3,3 0 0 1 3,3v5h10v-5a3,3 0 0 1 3,-3h5v-5a3,3 0 0 1 3,-3a3,3 0 0 1 3,3v8a3,3 0 0 1 -3,3h-5v21a3,3 0 0 1 -3,3h-5v5a3,3 0 0 1 -3,3h-5v5a3,3 0 0 1 -3,3h-8a3,3 0 0 1 -3,-3v-8a3,3 0 0 1 3,-3h13v-5a3,3 0 0 1 3,-3h5v-10h-13a3,3 0 0 1 -3,-3v-5h-13a3,3 0 0 1 -3,-3a3,3 0 0 1 3,-3h5v-13z" /><rect fill="black" fill-opacity="0.9" x="176" y="96" width="8" height="8" rx="2" ry="2" /><rect fill="black" fill-opacity="0.9" x="192" y="96" width="8" height="8" rx="2" ry="2" /><rect fill="black" fill-opacity="0.9" x="224" y="96" width="8" height="8" rx="2" ry="2" /><path fill="black" fill-opacity="0.9" d="M185 108a3,3 0 0 1 3,-3a3,3 0 0 1 3,3v13h5a3,3 0 0 1 3,3v8a3,3 0 0 1 -3,3a3,3 0 0 1 -3,-3v-5h-18v13a3,3 0 0 1 -3,3a3,3 0 0 1 -3,-3v-5h-10v5a3,3 0 0 1 -3,3a3,3 0 0 1 -3,-3v-8a3,3 0 0 1 3,-3h5v-5a3,3 0 0 1 3,-3h5v-5a3,3 0 0 1 3,-3a3,3 0 0 1 3,3v5h10v-13z" /><rect fill="black" fill-opacity="0.9" x="48" y="112" width="8" height="8" rx="2" ry="2" /><path fill="black" fill-opacity="0.9" d="M249 116a3,3 0 0 1 3,-3h32a3,3 0 0 1 3,3v5h13a3,3 0 0 1 3,3v8a3,3 0 0 1 -3,3a3,3 0 0 1 -3,-3v-5h-10v5a3,3 0 0 1 -3,3a3,3 0 0 1 -3,-3v-13h-26v10h5a3,3 0 0 1 3,3v16a3,3 0 0 1 -3,3a3,3 0 0 1 -3,-3v-5h-5a3,3 0 0 1 -3,-3v-24z" /><rect fill="black" fill-opacity="0.9" x="304" y="112" width="8" height="8" rx="2" ry="2" /><rect fill="black" fill-opacity="0.9" x="304" y="136" width="8" height="8" rx="2" ry="2" /><rect fill="black" fill-opacity="0.9" x="96" y="144" width="8" height="8" rx="2" ry="2" /><path fill="black" fill-opacity="0.9" d="M273 148a3,3 0 0 1 3,-3h8a3,3 0 0 1 3,3a3,3 0 0 1 -3,3h-8a3,3 0 0 1 -3,-3z" /><path fill="black" fill-opacity="0.9" d="M113 156a3,3 0 0 1 3,-3a3,3 0 0 1 3,3v8a3,3 0 0 1 -3,3a3,3 0 0 1 -3,-3v-8z" /><path fill="black" fill-opacity="0.9" d="M233 156a3,3 0 0 1 3,-3h8a3,3 0 0 1 3,3v5h13a3,3 0 0 1 3,3v5h13a3,3 0 0 1 3,3v8a3,3 0 0 1 -3,3a3,3 0 0 1 -3,-3v-5h-10v5a3,3 0 0 1 -3,3a3,3 0 0 1 -3,-3v-5h-21a3,3 0 0 1 -3,-3v-16z" /><rect fill="black" fill-opacity="0.9" x="264" y="152" width="8" height="8" rx="2" ry="2" /><path fill="black" fill-opacity="0.9" d="M289 156a3,3 0 0 1 3,-3a3,3 0 0 1 3,3v5h5a3,3 0 0 1 3,3a3,3 0 0 1 -3,3h-8a3,3 0 0 1 -3,-3v-8z" /><path fill="black" fill-opacity="0.9" d="M217 164a3,3 0 0 1 3,-3a3,3 0 0 1 3,3v13h5a3,3 0 0 1 3,3v5h5a3,3 0 0 1 3,3v5h10v-5a3,3 0 0 1 3,-3a3,3 0 0 1 3,3v16a3,3 0 0 1 -3,3h-5v5a3,3 0 0 1 -3,3a3,3 0 0 1 -3,-3v-5h-5a3,3 0 0 1 -3,-3v-13h-10v18h5a3,3 0 0 1 3,3a3,3 0 0 1 -3,3h-16a3,3 0 0 1 -3,-3a3,3 0 0 1 3,-3h5v-45z" /><path fill="black" fill-opacity="0.9" d="M105 172a3,3 0 0 1 3,-3a3,3 0 0 1 3,3v5h5a3,3 0 0 1 3,3a3,3 0 0 1 -3,3h-5v21a3,3 0 0 1 -3,3a3,3 0 0 1 -3,-3v-5h-5a3,3 0 0 1 -3,-3a3,3 0 0 1 3,-3h5v-10h-5a3,3 0 0 1 -3,-3a3,3 0 0 1 3,-3h5v-5z" /><rect fill="black" fill-opacity="0.9" x="136" y="168" width="8" height="8" rx="2" ry="2" /><rect fill="black" fill-opacity="0.9" x="128" y="176" width="8" height="8" rx="2" ry="2" /><path fill="black" fill-opacity="0.9" d="M297 180a3,3 0 0 1 3,-3a3,3 0 0 1 3,3v8a3,3 0 0 1 -3,3h-13v5a3,3 0 0 1 -3,3a3,3 0 0 1 -3,-3v-8a3,3 0 0 1 3,-3h13v-5z" /><rect fill="black" fill-opacity="0.9" x="48" y="184" width="8" height="8" rx="2" ry="2" /><path fill="black" fill-opacity="0.9" d="M137 188a3,3 0 0 1 3,-3a3,3 0 0 1 3,3v8a3,3 0 0 1 -3,3a3,3 0 0 1 -3,-3v-8z" /><rect fill="black" fill-opacity="0.9" x="72" y="192" width="8" height="8" rx="2" ry="2" /><path fill="black" fill-opacity="0.9" d="M265 196a3,3 0 0 1 3,-3a3,3 0 0 1 3,3v13h13a3,3 0 0 1 3,3v8a3,3 0 0 1 -3,3a3,3 0 0 1 -3,-3v-5h-10v5a3,3 0 0 1 -3,3a3,3 0 0 1 -3,-3v-5h-5a3,3 0 0 1 -3,-3a3,3 0 0 1 3,-3h5v-13z" /><path fill="black" fill-opacity="0.9" d="M49 204a3,3 0 0 1 3,-3a3,3 0 0 1 3,3v16a3,3 0 0 1 -3,3a3,3 0 0 1 -3,-3v-16z" /><path fill="black" fill-opacity="0.9" d="M129 204a3,3 0 0 1 3,-3a3,3 0 0 1 3,3v8a3,3 0 0 1 -3,3a3,3 0 0 1 -3,-3v-8z" /><path fill="black" fill-opacity="0.9" d="M297 204a3,3 0 0 1 3,-3a3,3 0 0 1 3,3v29h5a3,3 0 0 1 3,3v8a3,3 0 0 1 -3,3h-8a3,3 0 0 1 -3,-3v-13h-5a3,3 0 0 1 -3,-3a3,3 0 0 1 3,-3h5v-21z" /><path fill="black" fill-opacity="0.9" d="M73 212a3,3 0 0 1 3,-3h24a3,3 0 0 1 3,3a3,3 0 0 1 -3,3h-5v5a3,3 0 0 1 -3,3h-5v21a3,3 0 0 1 -3,3a3,3 0 0 1 -3,-3v-21h-5a3,3 0 0 1 -3,-3v-8z" /><path fill="black" fill-opacity="0.9" d="M113 212a3,3 0 0 1 3,-3a3,3 0 0 1 3,3v5h5a3,3 0 0 1 3,3v5h5a3,3 0 0 1 3,3v13h5a3,3 0 0 1 3,3a3,3 0 0 1 -3,3h-8a3,3 0 0 1 -3,-3v-5h-5a3,3 0 0 1 -3,-3v-5h-5a3,3 0 0 1 -3,-3v-5h-5a3,3 0 0 1 -3,-3a3,3 0 0 1 3,-3h5v-5z" /><rect fill="black" fill-opacity="0.9" x="136" y="216" width="8" height="8" rx="2" ry="2" /><path fill="black" fill-opacity="0.9" d="M153 220a3,3 0 0 1 3,-3h8a3,3 0 0 1 3,3v8a3,3 0 0 1 -3,3a3,3 0 0 1 -3,-3v-5h-5a3,3 0 0 1 -3,-3z" /><path fill="black" fill-opacity="0.9" d="M177 220a3,3 0 0 1 3,-3a3,3 0 0 1 3,3v8a3,3 0 0 1 -3,3a3,3 0 0 1 -3,-3v-8z" /><path fill="black" fill-opacity="0.9" d="M233 220a3,3 0 0 1 3,-3a3,3 0 0 1 3,3v5h21a3,3 0 0 1 3,3v13h13a3,3 0 0 1 3,3v13h5a3,3 0 0 1 3,3a3,3 0 0 1 -3,3h-5v10h5a3,3 0 0 1 3,3v8a3,3 0 0 1 -3,3h-5v5a3,3 0 0 1 -3,3h-24a3,3 0 0 1 -3,-3a3,3 0 0 1 3,-3h5v-10h-13a3,3 0 0 1 -3,-3v-32a3,3 0 0 1 3,-3h5v-10h-13a3,3 0 0 1 -3,-3v-8zM273 247h-26v26h26v-26z" /><rect fill="black" fill-opacity="0.9" x="96" y="224" width="8" height="8" rx="2" ry="2" /><path fill="black" fill-opacity="0.9" d="M145 228a3,3 0 0 1 3,-3a3,3 0 0 1 3,3v5h5a3,3 0 0 1 3,3a3,3 0 0 1 -3,3h-8a3,3 0 0 1 -3,-3v-8z" /><path fill="black" fill-opacity="0.9" d="M65 236a3,3 0 0 1 3,-3a3,3 0 0 1 3,3v8a3,3 0 0 1 -3,3h-16a3,3 0 0 1 -3,-3a3,3 0 0 1 3,-3h13v-5z" /><path fill="black" fill-opacity="0.9" d="M105 236a3,3 0 0 1 3,-3a3,3 0 0 1 3,3v8a3,3 0 0 1 -3,3h-8a3,3 0 0 1 -3,-3a3,3 0 0 1 3,-3h5v-5z" /><path fill="black" fill-opacity="0.9" d="M185 236a3,3 0 0 1 3,-3h8a3,3 0 0 1 3,3a3,3 0 0 1 -3,3h-5v13a3,3 0 0 1 -3,3h-5v5a3,3 0 0 1 -3,3h-13v5a3,3 0 0 1 -3,3h-13v5a3,3 0 0 1 -3,3h-21v5a3,3 0 0 1 -3,3a3,3 0 0 1 -3,-3v-5h-5a3,3 0 0 1 -3,-3a3,3 0 0 1 3,-3h5v-5a3,3 0 0 1 3,-3a3,3 0 0 1 3,3v5h10v-10h-5a3,3 0 0 1 -3,-3a3,3 0 0 1 3,-3h13v-5a3,3 0 0 1 3,-3h8a3,3 0 0 1 3,3v5h10v-13a3,3 0 0 1 3,-3h13v-5z" /><path fill="black" fill-opacity="0.9" d="M209 236a3,3 0 0 1 3,-3h8a3,3 0 0 1 3,3v5h5a3,3 0 0 1 3,3a3,3 0 0 1 -3,3h-24a3,3 0 0 1 -3,-3a3,3 0 0 1 3,-3h5v-5z" /><path fill="black" fill-opacity="0.9" d="M113 252a3,3 0 0 1 3,-3h8a3,3 0 0 1 3,3a3,3 0 0 1 -3,3h-5v5a3,3 0 0 1 -3,3a3,3 0 0 1 -3,-3v-8z" /><rect fill="black" fill-opacity="0.9" x="288" y="248" width="8" height="8" rx="2" ry="2" /><rect fill="black" fill-opacity="0.9" x="192" y="256" width="8" height="8" rx="2" ry="2" /><rect fill="black" fill-opacity="0.9" x="224" y="256" width="8" height="8" rx="2" ry="2" /><rect fill="black" fill-opacity="0.9" x="256" y="256" width="8" height="8" rx="2" ry="2" /><rect fill="black" fill-opacity="0.9" x="296" y="256" width="8" height="8" rx="2" ry="2" /><path fill="black" fill-opacity="0.9" d="M201 268a3,3 0 0 1 3,-3h16a3,3 0 0 1 3,3v5h5a3,3 0 0 1 3,3a3,3 0 0 1 -3,3h-16a3,3 0 0 1 -3,-3v-5h-5a3,3 0 0 1 -3,-3z" /><path fill="black" fill-opacity="0.9" d="M169 276a3,3 0 0 1 3,-3h8a3,3 0 0 1 3,3a3,3 0 0 1 -3,3h-8a3,3 0 0 1 -3,-3z" /><path fill="black" fill-opacity="0.9" d="M161 284a3,3 0 0 1 3,-3a3,3 0 0 1 3,3v5h5a3,3 0 0 1 3,3v5h34v-5a3,3 0 0 1 3,-3h16a3,3 0 0 1 3,3a3,3 0 0 1 -3,3h-5v10h10v-5a3,3 0 0 1 3,-3h8a3,3 0 0 1 3,3v5h5a3,3 0 0 1 3,3a3,3 0 0 1 -3,3h-40a3,3 0 0 1 -3,-3v-5h-10v5a3,3 0 0 1 -3,3h-8a3,3 0 0 1 -3,-3v-5h-18v5a3,3 0 0 1 -3,3a3,3 0 0 1 -3,-3v-5h-5a3,3 0 0 1 -3,-3a3,3 0 0 1 3,-3h5v-13z" /><rect fill="black" fill-opacity="0.9" x="192" y="280" width="8" height="8" rx="2" ry="2" /><path fill="black" fill-opacity="0.9" d="M129 292a3,3 0 0 1 3,-3h16a3,3 0 0 1 3,3a3,3 0 0 1 -3,3h-5v5a3,3 0 0 1 -3,3a3,3 0 0 1 -3,-3v-5h-5a3,3 0 0 1 -3,-3z" /><path fill="black" fill-opacity="0.9" d="M281 300a3,3 0 0 1 3,-3a3,3 0 0 1 3,3v8a3,3 0 0 1 -3,3a3,3 0 0 1 -3,-3v-8z" /><rect fill="black" fill-opacity="0.9" x="112" y="304" width="8" height="8" rx="2" ry="2" /><rect fill="black" fill-opacity="0.9" x="128" y="304" width="8" height="8" rx="2" ry="2" /><rect fill="black" fill-opacity="0.9" x="144" y="304" width="8" height="8" rx="2" ry="2" /><rect fill="black" fill-opacity="0.9" x="304" y="304" width="8" height="8" rx="2" ry="2" /><use xlink:href="#s" x="152" y="152" /></svg>